<svg xmlns="http://www.w3.org/2000/svg" fill="none" viewBox="0 0 325 245"><g clip-path="url(#clip0)"><path fill="#FFDED4" d="M325 19.434H0v224.808h325V19.434z"/><path fill="#fff" d="M286.284 243.992l1.804.3H172.141c-2.454 0-4.457-1.999-4.457-4.448v-2.199h119.552l-.952 6.347z"/><path fill="#342945" d="M307.973 129.988l-16.878 114.103-2.054.2h-1.452l-1.753-.3.902-6.247 16.778-112.854c2.755 0 4.858 2.399 4.457 5.098z"/><path fill="#95D3DB" d="M160.273 6.189c.551.75 1.052 1.45 1.453 2.199l-1.453-2.199z"/><path fill="#fff" d="M162.375 66.863c10.439 21.873-30.915 34.063-30.915 44.68 0 7.422 17.264 2.311 17.264 14.647v.05l-7.428-.05-26.097-.196v-6.93c0-14.304 43.562-21.726 33.726-38.045-2.811-4.669-21.781-9.634-14.655-25.067 4.869-10.52-2.911-19.268-7.979-25.51-2.56-3.097-4.618-7.03-6.324-11.158h44.315c-7.428 9.388-16.612 20.152-18.218 21.725-10.84 10.814 9.536 11.699 16.311 25.854z"/><path fill="#6C3C35" d="M86.649 159.527L28.8 96.553l11.67-6.498c26.244 19.242 29.399 4.698 33.406-11.595V64.465l9.015.2c2.404 1.55 4.658-.2 4.658-.2s-.35 1.25-.901 3.3c-.551 2.048-1.202 4.897-1.803 7.946-1.052 5.498 5.86 13.144 14.574 19.942.1.1.2.15.301.25-5.16-2.65-10.067 3.198-11.42 4.498-2.103 2.099-6.81 13.244 1.203 21.241 7.362 7.397 3.856 29.988 3.656 31.137"/><path fill="#90DFD6" d="M85.695 154.928c-23.34 25.239-47.28 34.585-71.37 45.881-.752.3-1.403.599-2.104.999C4.908 205.607 0 213.304 0 222.15v-92.612c0-10.745 5.76-20.641 15.075-25.889l13.423-7.547 57.197 58.826z"/><path fill="#67CCC3" fill-rule="evenodd" d="M143.293 215.453v22.141c-12.02 4.698-24.792 6.697-24.792 6.697H91.606l3.055-32.437 13.573 2.25 35.059 1.349z" clip-rule="evenodd"/><path fill="#000" d="M139.988 46.123l-5.961 13.344c3.857-10.595 2.855-18.892.251-24.64-.1-.15-.151-.35-.251-.5-8.414-2.698-24.742 4.799-29.149 13.145 0 1.1 2.354 1.9 0 1.85 0 0-1.553 1.349-1.452.35-.401.649-.852.999-1.203 1.449-4.356 5.047-11.168.75-12.07 0-2.955-2.5-3.305-10.096-9.716-10.096-8.965.7-6.561 16.193-3.256 22.19.701 1.35 1.503 2.2 2.254 2.7l-.25.9-4.859 19.291c-4.157 19.142-23.64 32.587-50.685 12.695l12.07-6.747c-.2.5-7.212 16.443 28.999-69.871C71.22 6.589 83.943.292 98.317.292c14.675 0 33.607 17.842 36.361 20.441 6.662 6.348 9.216 16.643 5.31 25.39z"/><path fill="#90DFD6" d="M90.752 176.469c-9.817 11.246-42.722 55.728-58.148 64.524-.05 0-.05.05-.1.05a23.16 23.16 0 0 1-11.82 3.249h85.795v-29.938l8.715-18.842"/><path fill="#C3765D" d="M234.898 230.147s-4.458 4.498-8.915 0c-4.458-4.498-9.717-8.646-9.717-8.646l-21.385 2.549 21.135 5.448s-1.903 7.597-19.132 2.649l-10.267 1.899c-6.562 1.199-13.323.3-19.283-2.699-6.211-.35-15.126 2.949-24.041 6.247v-22.091c6.661.45 14.825.75 24.792.75 8.915 0 29.049-6.248 29.7-6.647.651-.4 21.236 4.898 21.236 4.898l15.877 15.643z"/><path fill="#794740" d="M234.898 230.147s-4.458 4.498-8.915 0c-4.458-4.498-9.717-8.646-9.717-8.646l-21.385 2.549 21.135 5.448s-1.903 7.597-19.132 2.649l-10.267 1.899c-6.562 1.199-13.323.3-19.283-2.699-6.211-.35-15.126 2.949-24.041 6.247v-22.091c6.661.45 14.825.75 24.792.75 8.915 0 29.049-6.248 29.7-6.647.651-.4 21.236 4.898 21.236 4.898l15.877 15.643z"/><path fill="#000" d="M89.652 145.682c.2-1.199 4.458-13.195-5.058-24.94-7.162-8.796-.802-18.442 1.352-20.541 1.353-1.35 6.36-7.097 11.52-4.448.45.3.851.65 1.302 1l1.202.899c4.307 3.099 10.017 2.648 13.422-.2 2.955-2.45.752-5.248 1.803-5.798v103.158c-24.09.949-24.54-18.842-24.54-19.142"/><path fill="#FCB64D" fill-rule="evenodd" d="M107.832 124.84h42.122l-8.665 43.483-25.744-.2-7.713-43.283z" clip-rule="evenodd"/><path fill="#FCB64D" fill-rule="evenodd" d="M107.832 124.84h19.183v35.636l-11.52 7.847-7.663-43.483z" clip-rule="evenodd"/><path fill="#FFCB68" d="M132.974 124.84h-6.662v30.238h6.662V124.84z"/><path fill="#794740" d="M143.895 153.629s-15.777 13.544-25.794 14.294c-.901.1-1.753.1-2.654.2-8.515.699-17.18 1.699-21.637 6.547-.35.4-.751.85-1.252 1.45-7.914 9.296-31.053 40.933-47.53 57.126v-49.029c12.52-8.147 24.741-17.393 37.914-31.488 8.664-9.296 27.145-15.293 27.145-15.293l1.603 9.446s20.335-1.25 35.31-8.897l-3.105 15.644zM135.483 59.767a54.261 54.261 0 0 1-3.206 7.047c-2.905 5.348 1.954 11.146.601 14.195-1.703 3.998-8.063 1.449-8.765 3.198-1.052 2.649.852 4.149-.4 5.298-1.002.95-2.805 1.35-2.805 1.35s.15 3.598-3.255 3.898c-.201 0-.401.05-.551.1-2.655.6-.351 3.499-3.456 6.147-3.656 3.049-9.667 3.499-14.275.2-.45-.3-.9-.649-1.252-.949-.55-.55-1.151-1-1.703-1.3-9.315-7.147-16.778-15.243-15.676-21.041.651-3.199 1.352-6.198 1.953-8.347.551-2.15.952-3.498.952-3.498s-2.404 1.899-5.008.2c-.802-.5-1.603-1.35-2.354-2.749-3.407-6.198-5.91-21.941 3.355-22.641 8.014-.6 7.463 7.347 10.518 9.896.901.75 6.31 3.648 10.818-1.45 0 0 0-.05.05-.05.852-.899 1.253-1.749 1.854-2.798 4.557-8.497 23.79-15.094 32.555-12.395.1.15.2.35.25.5 2.755 5.947 3.806 14.444-.2 25.19z"/><path fill="#342945" d="M118.801 94.652c3.155-.3 3.055-3.698 3.055-3.698s1.703-.35 2.654-1.25c0 0 .351-.55.351-1.15 0-2.198-10.718 1-14.775-1.299 2.604 3.15 5.76 7.397 8.715 7.397z"/><path fill="#67CCC3" fill-rule="evenodd" d="M45.076 183.816v48.98c-3.756 3.648-7.212 6.547-10.067 8.146-.05 0-.05.05-.1.05-3.456 2.099-7.513 3.249-11.87 3.249C10.317 244.241 0 233.995 0 221.35c0-8.796 5.008-16.443 12.32-20.291.702-.35 1.453-.65 2.155-1 10.618-4.798 20.685-9.896 30.601-16.243z" clip-rule="evenodd"/><path fill="#fff" d="M317.384 31.23l-1.503 10.045-7.613 51.23-1.602 10.645-1.102 7.347-1.803 12.295-1.102 7.347-1.402 9.396-1.102 7.347-1.403 9.396-1.101 7.347-1.653 11.095-1.553 10.446H176.996c-1.352 0-2.504-1.099-2.504-2.499V30.879a2.509 2.509 0 0 1 2.504-2.499H314.93c1.552 0 2.704 1.35 2.454 2.85z"/><path fill="#D6F8F3" d="M315.932 41.274l-7.613 51.23H190.921a2.584 2.584 0 0 1-2.605-2.6v-46.03a2.584 2.584 0 0 1 2.605-2.6h125.011z"/><path fill="#90DFD6" d="M296.152 174.82l-1.552 10.446h-61.104v-8.297a2.584 2.584 0 0 1 2.605-2.599H294.7c.501.05 1.002.2 1.452.45z"/><path fill="#F1F3F5" d="M306.767 103.149l-1.102 7.347h-65.861a3.693 3.693 0 0 1-3.706-3.698 3.694 3.694 0 0 1 3.706-3.699h66.963v.05zM301.361 139.584l-1.102 7.348H192.828a3.695 3.695 0 0 1-3.707-3.699 3.694 3.694 0 0 1 3.707-3.698h108.533v.049zM298.857 156.378l-1.102 7.347H192.828a3.695 3.695 0 0 1-3.707-3.699 3.694 3.694 0 0 1 3.707-3.698h106.029v.05z"/><path fill="#90DFD6" d="M308.77 87.255l-.4 5.248H190.921a2.584 2.584 0 0 1-2.605-2.598l42.172-23.79a6.601 6.601 0 0 1 6.11-.151l34.859 17.643 13.974-5.448c1.703-.65 3.556-.55 5.208.2l18.131 8.896z"/><path fill="#FFCB67" d="M271.458 70.113c5.532 0 10.017-4.475 10.017-9.996 0-5.52-4.485-9.996-10.017-9.996-5.532 0-10.017 4.475-10.017 9.996 0 5.52 4.485 9.996 10.017 9.996z"/></g><defs><clipPath id="clip0"><path fill="#fff" d="M0 0h325v244H0z" transform="translate(0 .292)"/></clipPath></defs></svg>