<svg xmlns="http://www.w3.org/2000/svg" fill="none" viewBox="0 0 325 245"><g clip-path="url(#clip0)"><path fill="#DFF7E5" d="M324.875 19.234H.43v224.459h324.445V19.234z"/><path fill="#fff" d="M210.126 162.901l-32.35 11.678-7.55 2.744-1.6.599-16.949-8.284-.751-.349-12.849-6.288-15.1-7.385-17.95-8.783-15.1-7.336-10.6-5.19-9.3-4.54-.8-.399-15.499-7.536-2.05-.998-9.3-4.541-10.25-4.99-8.1-3.942-7.35-3.593-1.9-.948-14.4-7.036v-76.55h175.348c.25-.499.501-.948.8-1.447h25.65l.05.948v.5l.05.748 3.4 62.676.15 3.194.65 11.727.35 6.687.2 3.842.05 1.198.25 4.391 2.3 42.367.5 6.836z"/><path fill="#F1F3F5" d="M136.577 41.99a3.688 3.688 0 0 1-3.7 3.692h-47.25c-1.95 0-3.649-1.397-3.85-3.293-.2-2.196 1.501-4.042 3.65-4.042h47.4a3.627 3.627 0 0 1 3.75 3.643zM193.726 59.605a3.688 3.688 0 0 1-3.7 3.693H85.628c-1.95 0-3.65-1.398-3.85-3.294-.2-2.196 1.5-4.042 3.65-4.042h104.598c2.05-.05 3.75 1.597 3.7 3.643zM193.726 77.22a3.688 3.688 0 0 1-3.7 3.693H85.628c-1.95 0-3.65-1.397-3.85-3.293-.2-2.196 1.5-4.043 3.65-4.043h104.598c2.05-.05 3.75 1.597 3.7 3.643zM193.726 94.885a3.688 3.688 0 0 1-3.7 3.693H85.628c-1.95 0-3.65-1.397-3.85-3.293-.2-2.196 1.5-4.043 3.65-4.043h104.598c2.05-.05 3.75 1.598 3.7 3.643zM193.726 111.004a3.689 3.689 0 0 1-3.7 3.693H85.628c-1.95 0-3.65-1.398-3.85-3.294-.2-2.196 1.5-4.042 3.65-4.042h104.598c2.05-.05 3.75 1.597 3.7 3.643zM193.726 127.122a3.688 3.688 0 0 1-3.7 3.693H85.628c-1.95 0-3.65-1.397-3.85-3.294-.2-2.196 1.5-4.042 3.65-4.042h104.598c2.05-.05 3.75 1.597 3.7 3.643zM193.228 143.24c0 2.046-1.65 3.643-3.7 3.643h-84.499l-15.1-7.336h99.599c2.05 0 3.75 1.648 3.7 3.693zM193.226 159.359c0 2.045-1.65 3.643-3.7 3.643h-51.45l-15.099-7.336h66.549c2.05 0 3.749 1.647 3.7 3.693z"/><path fill="#FAB99A" d="M131.113 235.98l36.781-11.329 2.478-12.468 7.436-37.203-26.718-4.799-5.552 28.249-11.302 14.595-1.14 14.396-1.983 8.559z"/><path fill="#EBA286" d="M131.953 235.782l36.731-11.379 2.479-12.467-25.628-13.506-10.509 14.347-1.09 14.446-1.983 8.559z"/><path fill="#1E8061" d="M170.125 179.135c.049 0 .049 0 0 0l-5.503 65.107h120.355l-20.72-15.386-26.669-32.009-23.942-75.644-3.47-2.078V108.39l-14.871-12.32-18.638 5.64-4.56 1.386a15.596 15.596 0 0 0-10.855 12.17l-10.162 54.965c0-.05 18.192 8.855 19.035 8.904z"/><path fill="#EBA286" d="M287.601 201.25l2.826-17.662-22.654-1.039 19.828 18.701z"/><path fill="#1E8061" d="M252.609 86.77l42.53 18.899c13.334 5.887 21.166 19.838 19.332 34.235l-6.295 49.028-42.084-6.679-42.68-30.129-9.814-33.048 39.011-32.306z"/><path fill="#FAB99A" d="M179.591 26.512c-1.934 4.898-3.272 9.746-3.421 15.04-.148 5.046.397 10.24.397 15.237a5.456 5.456 0 0 0 4.313 5.344c.594.148.941.692.792 1.286-.545 2.078-.941 7.173 4.313 14.297 0 0-2.726 7.867 1.636 8.757 4.362.94 7.188-.495 7.188-.495l14.623 1.633h10.112l8.278-19.245-6.097-38.886-9.964-8.806h-12.243l-5.057.94-8.476 3.315-6.394 1.583zM233.771 45.658s-2.329 8.41-1.933 10.884c.397 2.473 0 0 0 0l6.097 10.24 5.502-3.66-9.666-17.464z"/><path fill="#FAB99A" d="M221.822 38.732l4.561 20.976 3.668 12.467-1.487 11.33-15.119 17.909.893 3.314 8.228 24.786 30.138-42.744-9.071-19.987s4.312-6.333 5.849-17.613c0 0 .545-11.032-8.675-10.488-9.219.544-18.985.05-18.985.05z"/><path fill="#EBA286" d="M209.086 115.167l8.526 21.323 34.996-49.72-9.072-19.987c.1.247-1.635 2.325-1.932 2.573-1.438 1.335-5.75 3.512-8.179-.94l-.447 9.647 2.826-.495-26.718 37.599z"/><path fill="#002A35" d="M248.148 36.901c0 1.83-.149 3.563-.396 5.294v.099c-.992-1.336-2.628-1.83-4.363-2.226-4.015-.94-7.137 4.007-8.724 7.223-.694 1.434-1.09 2.473-1.09 2.473-.942 2.078-1.487 4.453-1.735 6.778-.397 3.76-.1 7.372.148 9.35.149.99.645 1.93 1.487 2.524l2.231 2.275 1.338 1.336c2.479 2.523 2.875 6.48.943 9.45-3.272 5.095-6.544 10.141-10.262 14.544-2.28 2.672-6.543 7.075-9.319 9.252-.941.742-1.784 1.385-2.577 1.979-.198.148-.397.247-.546.395-.545.396-1.041.693-1.586 1.039a11.597 11.597 0 0 1-3.519 1.386c-.843.198-1.785.346-2.875.346h-.991c-3.718 0-8.973-3.71-9.568-7.273l-2.032-6.975-.991-3.463c-.397-1.287-1.19-2.424-2.181-3.265-.595-.495-1.14-1.04-1.686-1.584-.346-.396-.099-.99.446-1.039l.248-.049 4.164-.792s5.651-1.484 10.757-1.93c.594-.048 1.14-.098 1.685-.098 2.875-.099 4.412 1.633 5.651 2.127 1.338.545 3.123.693 4.015-.396 3.866-4.7 6.841-10.389 8.625-14.198a11.594 11.594 0 0 0 .545-8.262c-1.834-5.887-5.006-16.128-5.204-16.623l-.446-1.484c0 .05 0 .099.049.148l-4.362-13.654-.347-1.336a12.412 12.412 0 0 0-11.847-8.559c-.595 0-1.19.05-1.785.149-7.336 1.385-11.599 10.884-19.133 10.884a8.079 8.079 0 0 1-5.007-1.732c-1.883-1.484-3.123-3.81-3.123-6.382 0-1.138.347-2.375.892-3.562.248-.495.496-.94.794-1.435 3.321-5.244 10.608-10.389 14.424-12.962C196.943 2.617 204.18.292 211.516.292c14.574 0 27.164 8.509 33.013 20.778 2.38 4.898 3.619 10.192 3.619 15.831z"/><path fill="#002A35" d="M220.387 45.163c0 .05 0 .099.049.149.1.445.248.89.397 1.286l-.446-1.435z"/><path fill="#FAB99A" d="M287.604 201.25L230.4 147.226l-10.31-32.85-6.395-10.538a5.427 5.427 0 0 0-1.784-1.732l-13.136-7.52c-1.19 1.484-1.14 3.661.099 5.096l7.089 7.372 3.023 8.113-5.254-.989-11.451 15.93 5.453 15.386 13.681 13.308 37.128 62.83c1.784 3.018 4.114 5.641 6.89 7.817l20.819 14.842 9.914-5.64 4.213-16.771-2.775-20.63z"/><path fill="#fff" stroke="#fff" stroke-linecap="round" stroke-linejoin="round" stroke-miterlimit="10" stroke-width="2.006" d="M44.86 143.466l65.282 35.274 5.701 13.555 40.102 22.609-.149 2.029-34.649 1.237-43.423-17.415-32.022-13.11-7.237-42.398 4.461-3.018 1.933 1.237z"/><path fill="#002A35" stroke="#002A35" stroke-linecap="round" stroke-linejoin="round" stroke-miterlimit="10" stroke-width="1.505" d="M43.92 189.278l74.998 40.122 36.582-10.24a.591.591 0 0 0 .149-1.089l-67.266-36.61a3.901 3.901 0 0 0-2.478-.396L46.1 188.882l-7.733-45.861-2.23.395 7.782 45.862z"/><path fill="#F0F0EE" d="M115.844 192.197l-26.965-14.793c-.793-.445-1.736-.593-2.628-.346l-36.433 8.311-.991-6.332-4.858-28.15 70.091 37.253 1.784 4.057z"/><path fill="#FAB99A" d="M108.657 221.88l14.623-6.332a8.478 8.478 0 0 1 7.336.247l3.966 2.028a8.6 8.6 0 0 1 4.312 9.945l-2.429 8.558c-.396 1.386-1.486 2.425-2.924 2.771l-7.931 1.88c-1.091.247-2.28.05-3.222-.643l-14.375-10.142a4.29 4.29 0 0 1-1.735-2.919l-.1-1.039a4.124 4.124 0 0 1 2.479-4.354z"/><path fill="#094D40" d="M151.09 170.181s18.192 8.905 19.035 9.004l6.542-77.475-4.56 1.386a15.596 15.596 0 0 0-10.855 12.17l-10.162 54.915z"/><path fill="#FAB99A" d="M308.174 188.981l-8.031 55.261h-23.842l6.939-59.219 24.934 3.958z"/><path fill="#094D40" d="M268.668 182.698l39.557 6.283 6.295-49.028c1.834-14.397-5.998-28.348-19.283-34.235l-19.282-8.559-7.287 85.539z"/><path fill="#49B484" d="M65.678 86.901h-45.3c-1.5 0-2.75-1.247-2.75-2.745v-45.16c0-1.498 1.25-2.745 2.75-2.745h45.3c1.5 0 2.75 1.248 2.75 2.745v45.21c0 1.497-1.25 2.695-2.75 2.695z"/><path fill="#fff" d="M42.28 69.236c-1.6 0-2.9 1.247-2.9 2.794 0 1.497 1.3 2.745 2.9 2.745 1.6 0 2.9-1.248 2.9-2.745 0-1.597-1.3-2.794-2.9-2.794zm1.1-20.81c-4.75 0-7.65 2.995-8.2 6.887l4.4.6c.25-1.748 1.35-3.743 3.65-3.743 1.85 0 2.75.997 2.75 2.794 0 1.747-1.1 2.844-2.45 4.241-1.75 1.897-3.35 3.444-3.35 6.288v1.398h4.25v-1.098c.05-2.046 1.7-3.444 3.45-5.19 1.65-1.747 3-3.294 3-5.889 0-3.842-2.55-6.287-7.5-6.287z"/></g><defs><clipPath id="clip0"><path fill="#fff" d="M0 0h325v244H0z" transform="translate(0 .292)"/></clipPath></defs></svg>