<svg xmlns="http://www.w3.org/2000/svg" fill="none" viewBox="0 0 436 336"><path fill="#004C3F" d="M152.054 255.864H0V336h152.054v-80.136z"/><path fill="#90DFD6" d="M76.028 320.59c13.618 0 24.658-11.04 24.658-24.658 0-13.618-11.04-24.657-24.658-24.657-13.618 0-24.657 11.039-24.657 24.657s11.04 24.658 24.657 24.658z"/><path fill="#3FB484" d="M310.034 255.864H157.98V336h152.054v-80.136z"/><path fill="#69CF9C" d="M234.013 320.59c13.618 0 24.657-11.04 24.657-24.658 0-13.618-11.039-24.657-24.657-24.657s-24.658 11.039-24.658 24.657 11.04 24.658 24.658 24.658z"/><path fill="#004C3F" d="M468.018 255.864H315.965V336h152.053v-80.136z"/><path fill="#90DFD6" d="M391.993 320.59c13.618 0 24.658-11.04 24.658-24.658 0-13.618-11.04-24.657-24.658-24.657-13.618 0-24.657 11.039-24.657 24.657s11.039 24.658 24.657 24.658z"/><path fill="#008060" d="M237.913 170.576H85.859v80.136h152.054v-80.136z"/><path fill="#69CF9C" d="M161.888 235.301c13.618 0 24.657-11.039 24.657-24.657s-11.039-24.657-24.657-24.657-24.658 11.039-24.658 24.657 11.04 24.657 24.658 24.657z"/><path fill="#002E25" d="M395.897 170.576H243.844v80.136h152.053v-80.136z"/><path fill="#008060" d="M319.872 235.301c13.618 0 24.658-11.039 24.658-24.657s-11.04-24.657-24.658-24.657c-13.618 0-24.657 11.039-24.657 24.657s11.039 24.657 24.657 24.657zM553.878 170.576H401.824v80.136h152.054v-80.136z"/><path fill="#004C3F" d="M354.682 84.143H202.629v80.136h152.053V84.143z"/><path fill="#008060" d="M278.657 148.869c13.618 0 24.658-11.04 24.658-24.657 0-13.618-11.04-24.658-24.658-24.658-13.618 0-24.657 11.04-24.657 24.658 0 13.617 11.039 24.657 24.657 24.657z"/><path fill="#3FB484" d="M512.667 84.143H360.613v80.136h152.054V84.143z"/><path fill="#69CF9C" d="M436.642 148.869c13.618 0 24.657-11.04 24.657-24.657 0-13.618-11.039-24.658-24.657-24.658s-24.658 11.04-24.658 24.658c0 13.617 11.04 24.657 24.658 24.657z"/><path fill="#008060" d="M440.655 0H289.133v77.573h151.522V0z"/><path fill="#69CF9C" d="M364.782 62.817c13.249 0 23.989-10.74 23.989-23.989s-10.74-23.99-23.989-23.99-23.989 10.741-23.989 23.99c0 13.25 10.74 23.99 23.989 23.99z"/></svg>